<svg xmlns="http://www.w3.org/2000/svg" xmlns:xlink="http://www.w3.org/1999/xlink" width="5053" height="1371" viewBox="0 0 4736.537 1284.824"><defs><linearGradient id="A" x1="4488.205" y1="-2065.557" x2="5970.37" y2="-3500.276" gradientUnits="userSpaceOnUse"><stop offset="0" stop-color="#00a0ed"/><stop offset="1" stop-color="#0fffcd"/></linearGradient><linearGradient id="B" x1="9235.224" y1="-2874.377" x2="6470.991" y2="-1475.198" gradientUnits="userSpaceOnUse"><stop offset="0" stop-color="#0be5d6"/><stop offset="1" stop-color="#00a0ed"/></linearGradient><path id="C" d="M6013.877-2881h241.74v43.534h-190.012v113.188h182.073v43.534h-182.073v138.54h194.62v43.534h-246.35V-2881z"/></defs><g transform="translate(-4498.872 3331.992)"><path d="M6497.83-2697.134l131.113 198.718h-55.57l-107.554-162.61 32-36.107z" fill="#ffb333"/><path d="M6319.085-2880.744h55.57l95.006 142.125-31.498 36.107z" fill="#ff542c"/><path d="M6469.66-2738.62l95.518-142.125h55.57l-122.92 183.6-28.17-41.485z" opacity="1" fill="#74b92c"/><path d="M6465.82-2661.027l-108.322 162.61h-55.825l136.49-204.096 27.657 41.485z" fill="#00a0ed"/><path d="M6452.468-2701.037l-14.354-1.43c-.187-.07-4.347-21.6 4.405-31.522s27.1-4.692 27.124-4.654-.393 8.554-.927 18.923l-.893 19.692c-.013.355-.1.13-.46.105-.336-.023-7.188-.402-14.896-1.116z" opacity="1" fill="#ff542c"/><path d="M6465.688-2662.812c0-2.004 1.14-25.32 1.617-33.13.206-3.37-.07-3.948.52-3.948 2.262 0 24.24 1.98 28.378 2.513l1.664.213.988 31.983c-2.85 3.28-31.74 2.935-32.52 3.768-.634.676-.647.65-.646-1.4z" opacity="1" fill="#ffb333"/><path d="M6482.173-2698.4l-14.35-1.476c-.14-.14 1.578-37.23 1.8-38.73.053-.388 29.4 4.548 28.178 41.335.148.373.757.417-15.617-1.128z" opacity="1" fill="#74b92c" fill-opacity=".992"/><path d="M6439.486-2674.903c-7.613-11.554-1.562-27.595-1.322-27.6s7 .582 15.045 1.302l14.61 1.3-.203 2.67c-.112 1.468-.548 10.213-.97 19.434l-1 17.038c-.13.15-18.546-2.598-26.16-14.152z" opacity="1" fill="#00a0ed"/><g fill="#fff"><use xlink:href="#C"/><path d="M6872.003-2766.788q0-34.57-19.718-53-19.718-18.694-55.825-18.694h-65.044v143.66h65.044q36.363 0 55.825-18.438 19.718-18.694 19.718-53.52zm54.545 0q0 54.033-31.498 84.25-31.498 30.218-98.6 30.218h-65.044v153.648h-51.728V-2881h116.773q29.705 0 52.497 6.402 23.047 6.402 37.388 16.9 14.597 10.5 23.815 25.608 9.22 14.853 12.804 30.73 3.585 15.877 3.585 34.57zM6996.202-2881h51.728v338.794h186.17v43.534h-237.9V-2881zm555.694 271.957q13.572-34.827 13.572-80.4 0-45.582-13.316-80.4-13.316-34.827-41.485-55.313-27.913-20.743-67.35-20.743-39.436 0-67.605 20.486-27.913 20.486-41.485 55.313-13.572 34.827-13.572 80.665 0 45.582 13.316 80.4 13.572 34.57 41.74 55.313 28.17 20.486 67.605 20.486 39.436 0 67.35-20.486 27.913-20.486 41.23-55.313zm-285.786-80.4q0-59.154 21-103.97 21-44.814 61.203-69.654 40.46-24.84 95.006-24.84 81.7 0 129.064 54.3 47.63 54.3 47.63 144.173 0 90.14-47.63 144.173-47.375 54.033-129.064 54.033-54.545 0-94.75-24.584-40.205-24.84-61.46-69.398-21-44.814-21-104.225zm681.686-81.432q0 37.132-17.157 60.7-17.157 23.303-48.4 32.266 32.778 11 64.02 74.775l52.497 104.48h-55.57l-48.9-98.08q-17.67-35.85-35.595-49.68-17.67-13.828-49.68-13.828h-56.338v161.587h-51.728V-2881h116.773q63.508 0 96.798 26.632 33.3 26.376 33.3 83.482zm-54.545 0q0-34.06-19.462-50.704-19.462-16.9-56.082-16.9h-65.044v135.723h65.044q36.62 0 56.082-16.9 19.462-17.157 19.462-51.216z"/><use xlink:href="#C" x="2051.716"/></g><path d="M8667.423-2611.092q0-33.803-18.95-51.728-18.694-18.182-62.996-18.182h-82.97v140.076h82.97q40.205 0 60.947-16.645 21-16.9 21-53.52zm-13.316-169.525q0-57.618-75.03-57.618h-76.568V-2723h76.568q39.95 0 57.362-14.853 17.67-15.11 17.67-42.765zm67.86 175.16q0 53.265-36.107 80.153-35.85 26.888-97.823 26.888h-137.26v-382.328h132.138q56.594 0 89.884 23.56 33.3 23.303 33.3 70.934 0 70.934-64.532 81.7 37.132 7.938 58.642 33.546 21.767 25.352 21.767 65.557z" fill="url(#B)"/><path d="M8810.316-2880.744h51.728v382.328h-51.728v-382.328z" fill="url(#B)"/><path d="M8911.98-2880.744h323.43v43.534h-135.723v338.794h-51.984v-338.794H8911.98v-43.534z" fill="url(#B)"/><path d="M5756.93-2818.062c16.06 0 26.767-10.707 26.767-26.767s-10.707-26.767-26.767-26.767h-155.25v-101.715h155.25c16.06 0 26.767-10.707 26.767-26.767s-10.707-26.767-26.767-26.767h-155.25v-42.827c0-45.504-34.797-80.302-80.302-80.302h-42.827v-155.25c0-16.06-10.707-26.767-26.767-26.767s-26.767 10.707-26.767 26.767v155.25H5323.3v-155.25c0-16.06-10.707-26.767-26.767-26.767s-26.767 10.707-26.767 26.767v155.25H5168.05v-155.25c0-16.06-10.707-26.767-26.767-26.767s-26.767 10.707-26.767 26.767v155.25h-101.715v-155.25c0-16.06-10.707-26.767-26.767-26.767s-26.767 10.707-26.767 26.767v155.25h-101.715v-155.25c0-16.06-10.707-26.767-26.767-26.767s-26.767 10.707-26.767 26.767v155.25H4761.2c-45.504 0-80.3 34.797-80.3 80.302v42.827h-155.25c-16.06 0-26.767 10.707-26.767 26.767s10.707 26.767 26.767 26.767h155.25v101.715h-155.25c-16.06 0-26.767 10.707-26.767 26.767s10.707 26.767 26.767 26.767h155.25v101.715h-155.25c-16.06 0-26.767 10.707-26.767 26.767s10.707 26.767 26.767 26.767h155.25v101.715h-155.25c-16.06 0-26.767 10.707-26.767 26.767s10.707 26.767 26.767 26.767h155.25v101.715h-155.25c-16.06 0-26.767 10.707-26.767 26.767s10.707 26.767 26.767 26.767h155.25v42.827c0 45.504 34.797 80.302 80.3 80.302h42.827v155.25c0 16.06 10.707 26.767 26.767 26.767s26.767-10.707 26.767-26.767v-155.25h101.715v155.25c0 16.06 10.707 26.767 26.767 26.767s26.767-10.707 26.767-26.767v-155.25h101.715v155.25c0 16.06 10.707 26.767 26.767 26.767s26.767-10.707 26.767-26.767v-155.25h101.715v155.25c0 16.06 10.707 26.767 26.767 26.767s26.767-10.707 26.767-26.767v-155.25h101.715v155.25c0 16.06 10.707 26.767 26.767 26.767s26.767-10.707 26.767-26.767v-155.25h42.827c45.504 0 80.302-34.797 80.302-80.302v-42.827h155.25c16.06 0 26.767-10.707 26.767-26.767s-10.707-26.767-26.767-26.767h-155.25v-101.715h155.25c16.06 0 26.767-10.707 26.767-26.767s-10.707-26.767-26.767-26.767h-155.25v-101.715h155.25c16.06 0 26.767-10.707 26.767-26.767s-10.707-26.767-26.767-26.767h-155.25v-101.715h155.25zm-208.784 508.576c0 16.06-10.707 26.767-26.767 26.767H4761.2c-16.06 0-26.767-10.707-26.767-26.767v-760.188c0-16.06 10.707-26.767 26.767-26.767h762.864c16.06 0 26.767 10.707 26.767 26.767v760.188z" fill="url(#A)"/><path d="M5443.753-3018.816H5243c-16.06 0-26.767 10.707-26.767 26.767s10.707 26.767 26.767 26.767h173.987v179.34c0 16.06 10.707 26.767 26.767 26.767s26.767-10.707 26.767-26.767v-206.107c0-13.384-13.384-26.767-26.767-26.767z" fill="url(#A)"/><path d="M5047.6-3018.816h-208.784c-16.06 0-26.767 10.707-26.767 26.767v206.107c0 16.06 10.707 26.767 26.767 26.767s26.767-10.707 26.767-26.767v-179.34H5047.6c16.06 0 26.767-10.707 26.767-26.767s-10.707-26.767-26.767-26.767z" fill="url(#A)"/><path d="M5047.6-2413.878h-182.017v-179.34c0-16.06-10.707-26.767-26.767-26.767s-26.767 10.707-26.767 26.767v206.107c0 16.06 10.707 26.767 26.767 26.767H5047.6c16.06 0 26.767-10.707 26.767-26.767s-10.707-26.767-26.767-26.767z" fill="url(#A)"/><path d="M5443.753-2619.985c-16.06 0-26.767 10.707-26.767 26.767v179.34H5243c-16.06 0-26.767 10.707-26.767 26.767s10.707 26.767 26.767 26.767h200.754c16.06 0 26.767-10.707 26.767-26.767v-206.107c0-16.06-13.384-26.767-26.767-26.767z" fill="url(#A)"/><path d="M5180.166-2698.61l156.75 237.574h-66.435l-128.584-194.407 38.27-43.168z" fill="#ffb333"/><path d="M4966.47-2918.122h66.435l113.583 169.914-37.657 43.168z" fill="#ff542c"/><path d="M5146.49-2748.208l114.195-169.914h66.435l-146.953 219.51-33.677-49.597z" opacity="1" fill="#74b92c"/><path d="M5141.897-2655.444l-129.503 194.407h-66.74l163.18-244.004 33.065 49.597z" fill="#00a0ed"/><path d="M5125.935-2703.276l-17.16-1.708c-.224-.084-5.197-25.812 5.267-37.685s32.4-5.6 32.428-5.564-.47 10.226-1.108 22.623l-1.067 23.542c-.016.424-.12.155-.55.126-.402-.027-8.594-.48-17.808-1.334z" opacity="1" fill="#ff542c"/><path d="M5141.74-2657.577c0-2.395 1.362-30.27 1.933-39.6.247-4.03-.084-4.72.622-4.72 2.704 0 28.98 2.37 33.927 3.005l1.99.255 1.18 38.237c-3.408 3.92-37.947 3.51-38.88 4.504-.758.808-.773.775-.772-1.673z" opacity="1" fill="#ffb333"/><path d="M5161.45-2700.137l-17.157-1.765c-.166-.168 1.886-44.508 2.14-46.304.064-.463 35.15 5.437 33.687 49.417.177.446.905.5-18.67-1.35z" opacity="1" fill="#74b92c" fill-opacity=".992"/><path d="M5110.416-2672.033c-9.102-13.814-1.867-32.99-1.58-32.997.287 0 8.38.695 17.987 1.557l17.465 1.567-.242 3.19c-.134 1.755-.655 12.2-1.16 23.234l-1.197 20.37c-.155.18-22.172-3.106-31.274-16.92z" opacity="1" fill="#00a0ed"/></g></svg>