<svg width="170" height="30" viewBox="0 0 170 30" fill="none" xmlns="http://www.w3.org/2000/svg">
<path d="M47.0625 22.2266H49.4902V7.89648H46.9766V17.8438L39.6504 7.89648H37.0723V22.2266H39.5859V12L47.0625 22.2266Z" fill="black"/>
<path d="M52.5351 22.2266H62.3535V20.0137H55.0488V16.0391H62.2031V13.8262H55.0488V10.1094H62.3535V7.89648H52.5351V22.2266Z" fill="black"/>
<path d="M75.8918 22.2266H78.5774L82.6594 7.89648H79.845L77.0735 18.9395L74.1086 7.89648H72.1106L69.1458 18.9395L66.3528 7.89648H63.5383L67.6418 22.2266H70.3274L73.0989 11.6563L75.8918 22.2266Z" fill="black"/>
<path d="M83.4183 20.207C84.6858 21.5605 86.5979 22.4844 89.2405 22.4844C93.1077 22.4844 94.7835 20.4434 94.7835 18.0586C94.7835 14.9434 91.969 14.2129 89.6058 13.6113C87.9085 13.1816 86.4476 12.8164 86.4476 11.6992C86.4476 10.625 87.3929 9.91602 88.8753 9.91602C90.3792 9.91602 91.9046 10.4316 93.0218 11.5488L94.4612 9.67969C93.1292 8.39062 91.3245 7.68164 89.0901 7.68164C85.9534 7.68164 83.8694 9.50781 83.8694 11.8711C83.8694 14.9004 86.6194 15.5879 88.9612 16.168C90.7015 16.6191 92.2269 17.0059 92.2269 18.2949C92.2269 19.2402 91.4104 20.25 89.3479 20.25C87.3499 20.25 85.803 19.3262 84.8147 18.2734L83.4183 20.207Z" fill="black"/>
<path d="M102.616 22.2266H109.857C112.542 22.2266 114.025 20.5723 114.025 18.3594C114.025 16.5977 112.779 15.0723 111.253 14.8359C112.585 14.5566 113.745 13.3535 113.745 11.5488C113.745 9.5293 112.284 7.89648 109.663 7.89648H102.616V22.2266ZM105.13 13.8262V10.1094H109.148C110.437 10.1094 111.167 10.9043 111.167 11.9785C111.167 13.0527 110.437 13.8262 109.148 13.8262H105.13ZM105.13 20.0137V16.0391H109.255C110.695 16.0391 111.446 16.9414 111.446 18.0156C111.446 19.2617 110.63 20.0137 109.255 20.0137H105.13Z" fill="black"/>
<path d="M124.733 22.2266H127.634L124.132 16.5977C125.85 16.3184 127.526 14.9434 127.526 12.3867C127.526 9.74414 125.679 7.89648 122.843 7.89648H116.548V22.2266H119.061V16.877H121.554L124.733 22.2266ZM124.948 12.3867C124.948 13.7617 123.917 14.6641 122.499 14.6641H119.061V10.1094H122.499C123.917 10.1094 124.948 11.0117 124.948 12.3867Z" fill="black"/>
<path d="M130.038 22.2266H139.857V20.0137H132.552V16.0391H139.706V13.8262H132.552V10.1094H139.857V7.89648H130.038V22.2266Z" fill="black"/>
<path d="M152.471 22.2266H155.329L149.7 7.89648H146.563L140.934 22.2266H143.792L144.844 19.4766H151.418L152.471 22.2266ZM148.131 10.4316L150.709 17.2637H145.553L148.131 10.4316Z" fill="black"/>
<path d="M165.466 22.2266H168.56L162.308 14.6641L168.13 7.89648H165.015L159.407 14.7285V7.89648H156.894V22.2266H159.407V17.6504L160.654 16.1895L165.466 22.2266Z" fill="black"/>
<path d="M0.00328495 28.5165L5.07813 7.67578L11.3281 16.5455L0.932645 28.8914C0.840546 28.983 0.580996 29.1413 0.304698 29.0163C0.0260656 28.8903 -0.0134603 28.6331 0.00328495 28.5165Z" fill="url(#paint0_linear)"/>
<path fill-rule="evenodd" clip-rule="evenodd" d="M5.07812 7.66297L15.4255 4.0625L27.3438 21.7148L15.8494 27.8906L5.07812 7.66297Z" fill="url(#paint1_linear)"/>
<path d="M29.7738 1.19837L15.8203 27.8906L27.5023 21.6409L30.8471 1.67147C30.8638 1.51377 30.922 1.12368 30.4977 0.974281C30.1608 0.855687 29.8487 1.04898 29.7738 1.19837Z" fill="#EC3E36"/>
<defs>
<linearGradient id="paint0_linear" x1="6.54297" y1="15.6836" x2="-1.95312" y2="31.0156" gradientUnits="userSpaceOnUse">
<stop stop-color="#C1061C"/>
<stop offset="1" stop-color="#EC3E36" stop-opacity="0.98"/>
</linearGradient>
<linearGradient id="paint1_linear" x1="10.4492" y1="5.625" x2="20.0195" y2="20.3711" gradientUnits="userSpaceOnUse">
<stop stop-color="#EC3E36"/>
<stop offset="1" stop-color="#D10820"/>
</linearGradient>
</defs>
</svg>
